<?xml version="1.0" standalone="no"?>
<!DOCTYPE svg PUBLIC "-//W3C//DTD SVG 20010904//EN"
 "http://www.w3.org/TR/2001/REC-SVG-20010904/DTD/svg10.dtd">
<svg version="1.0" xmlns="http://www.w3.org/2000/svg"
 width="900.000000pt" height="900.000000pt" viewBox="0 0 900.000000 900.000000"
 preserveAspectRatio="xMidYMid meet">
<metadata>
Created by potrace 1.14, written by Peter Selinger 2001-2017
</metadata>
<g transform="translate(0.000000,900.000000) scale(0.100000,-0.100000)"
fill="#000000" stroke="none">
<path d="M3116 6147 c-67 -13 -103 -53 -205 -224 -73 -123 -88 -141 -120 -153
-38 -13 -123 -52 -286 -130 -55 -27 -135 -62 -178 -80 -59 -25 -86 -42 -117
-78 -33 -39 -37 -49 -27 -62 7 -8 19 -28 27 -43 16 -32 65 -74 123 -105 l37
-20 67 35 c75 38 118 40 139 8 19 -30 -6 -74 -61 -107 -50 -31 -58 -48 -20
-48 14 0 25 -1 25 -3 0 -7 -81 -191 -119 -271 -85 -178 -124 -264 -151 -331
-16 -38 -39 -90 -53 -115 -14 -25 -28 -61 -30 -80 -9 -56 -45 -174 -71 -232
-45 -97 -67 -143 -86 -178 -10 -19 -16 -45 -13 -57 3 -12 -12 -70 -32 -130
-38 -110 -70 -159 -165 -259 -22 -23 -45 -55 -52 -70 -7 -16 -37 -62 -68 -101
-30 -40 -71 -94 -91 -121 -35 -45 -165 -274 -202 -354 -9 -20 -17 -45 -17 -55
0 -11 -7 -28 -15 -39 -27 -35 -14 -64 29 -64 25 0 100 71 116 109 8 19 25 31
67 44 31 10 67 27 81 37 36 29 45 25 38 -14 -6 -30 -4 -35 25 -46 17 -7 35
-24 40 -37 9 -24 9 -24 69 29 33 29 60 58 60 64 0 17 22 32 55 38 16 3 43 15
59 27 19 14 47 23 75 25 116 5 190 46 247 135 27 44 71 87 99 99 11 4 49 32
85 61 36 29 94 68 130 85 36 18 89 55 119 83 30 28 63 54 75 57 12 4 34 17 49
30 16 13 37 24 47 24 58 0 -1 -96 -110 -178 -35 -27 -66 -90 -51 -105 11 -11
180 101 181 119 0 7 32 43 70 81 73 73 84 100 54 134 -12 14 -22 16 -40 9 -22
-9 -24 -8 -14 10 6 11 22 27 36 37 46 32 94 75 94 84 0 5 -7 9 -15 9 -26 0
-16 19 25 46 29 19 48 25 68 21 36 -7 85 21 106 61 9 17 43 55 78 86 34 31 63
64 64 72 3 21 134 147 187 181 23 14 78 62 122 106 44 43 96 87 115 98 19 10
55 37 80 59 25 23 64 55 87 73 23 18 45 39 48 47 3 8 32 43 64 78 l58 63 -35
-73 c-20 -40 -37 -84 -39 -97 -2 -13 -11 -40 -19 -60 -8 -20 -15 -38 -15 -41
-1 -3 -7 -20 -15 -39 -8 -19 -17 -47 -19 -63 -3 -17 -17 -52 -30 -79 -14 -27
-32 -78 -41 -115 -8 -36 -21 -82 -29 -102 -20 -53 -42 -148 -49 -215 -4 -32
-13 -71 -20 -86 -8 -15 -19 -59 -24 -97 -6 -39 -19 -89 -31 -111 -11 -22 -18
-42 -16 -45 3 -2 -3 -24 -13 -49 -12 -30 -23 -44 -36 -44 -28 0 -54 -43 -60
-97 -4 -47 9 -67 20 -30 13 42 34 82 44 82 5 0 9 -18 8 -41 -2 -49 -30 -89
-57 -82 -19 5 -33 -24 -36 -72 -1 -11 -4 -34 -8 -50 -6 -24 -1 -46 22 -96 33
-73 39 -79 99 -103 47 -18 58 -16 162 23 30 12 89 26 130 32 41 6 86 12 99 14
14 3 30 0 37 -6 10 -8 20 -6 36 5 30 21 84 21 92 -1 6 -14 8 -14 22 5 8 12 22
22 31 22 13 0 14 8 9 40 -4 24 -2 40 4 40 19 0 98 85 114 123 11 28 21 37 33
35 10 -2 17 -11 17 -21 -3 -27 11 -20 23 14 7 19 16 28 23 24 6 -4 9 -12 7
-19 -3 -6 -12 -28 -21 -48 l-16 -38 25 12 c14 6 25 14 26 17 5 38 34 95 66
127 11 11 13 18 5 26 -19 19 68 158 99 158 5 0 9 15 9 34 0 19 5 38 10 41 22
14 10 35 -20 35 -22 0 -30 5 -30 18 0 32 17 45 55 44 l36 -1 -2 49 c-2 27 2
55 8 62 15 18 47 137 40 145 -4 3 -1 15 5 27 8 16 4 15 -21 -8 -17 -16 -34
-26 -38 -22 -4 3 -1 28 6 54 22 79 25 96 13 88 -25 -15 -22 18 3 43 15 14 37
46 49 71 11 25 31 50 42 55 12 6 28 16 36 22 8 7 29 15 47 18 18 3 46 12 62
21 25 12 29 13 29 0 0 -8 -6 -16 -12 -19 -7 -2 -9 -8 -5 -13 5 -5 16 0 25 11
38 47 68 36 75 -25 2 -19 7 -42 10 -50 3 -8 8 -38 11 -66 3 -28 19 -102 36
-165 16 -63 40 -152 51 -197 22 -83 22 -84 50 -78 32 6 59 -1 59 -16 0 -5 9
-21 20 -35 11 -15 18 -34 15 -43 -3 -10 1 -22 9 -29 9 -7 13 -28 12 -54 -1
-30 4 -46 17 -55 9 -8 16 -19 15 -25 -1 -7 6 -26 15 -44 9 -18 18 -40 20 -50
1 -10 6 -24 10 -30 5 -7 15 -36 23 -64 12 -41 13 -53 3 -60 -15 -9 -2 -30 68
-110 28 -31 60 -72 71 -91 21 -33 110 -118 197 -185 34 -27 50 -32 106 -35 44
-2 71 2 82 10 9 8 26 12 39 10 12 -2 23 2 23 7 1 21 17 35 40 35 32 0 37 11
19 44 -7 16 -14 32 -14 37 0 18 83 84 102 81 17 -3 19 0 12 20 -4 13 -6 38 -6
57 1 18 -3 41 -8 51 -13 25 -19 90 -8 96 5 3 15 -2 23 -12 23 -33 28 -7 7 35
l-21 40 33 74 c22 47 31 79 26 87 -5 9 -1 24 11 41 24 34 24 39 -1 39 -16 0
-20 7 -20 34 0 19 4 37 9 40 5 3 7 14 4 24 -3 13 7 27 31 45 39 31 56 34 56
12 0 -13 4 -14 20 -5 11 6 20 21 20 35 0 15 7 26 20 30 16 5 19 11 13 28 -4
12 -7 36 -6 54 l0 32 -50 -2 c-46 -2 -53 1 -64 23 -12 24 -11 25 35 39 26 7
48 14 50 16 4 4 -20 149 -29 173 -13 33 -30 17 -28 -26 3 -41 -15 -82 -34 -82
-7 0 -20 11 -29 24 -16 23 -16 25 2 41 11 10 20 30 19 44 -1 14 7 47 16 72
l18 46 -32 67 c-27 57 -34 65 -50 57 -15 -8 -18 -5 -18 22 -2 65 -18 122 -33
118 -53 -14 -55 -13 -68 26 -14 41 -20 64 -21 76 -1 4 -7 7 -15 7 -7 0 -21 11
-30 25 -9 14 -23 25 -31 25 -7 0 -20 6 -27 13 -29 27 -84 65 -106 71 -22 7
-22 9 -8 25 9 10 34 23 55 30 36 10 91 60 91 81 0 13 67 32 88 26 21 -7 73 28
69 46 -1 7 15 15 35 18 23 4 46 17 59 33 21 27 49 36 49 16 0 -22 79 41 108
86 4 6 20 19 36 29 21 13 25 20 16 26 -17 10 99 70 136 70 16 0 37 11 54 30
15 16 49 39 74 50 25 10 56 28 67 39 12 11 38 28 58 37 20 9 40 23 44 31 4 7
22 19 40 27 18 7 49 27 69 43 37 30 37 30 15 41 -20 10 -19 11 13 11 67 -1
191 43 310 109 47 26 55 35 53 58 -1 15 -4 29 -7 31 -7 7 -96 -35 -96 -46 0
-11 -88 -46 -96 -38 -8 7 27 37 74 62 20 11 85 46 145 78 100 54 127 77 93 77
-8 0 -27 -5 -41 -10 -15 -6 -52 -13 -83 -16 -31 -3 -60 -7 -64 -10 -20 -13 -5
37 15 51 30 19 51 61 35 71 -7 4 -2 14 13 25 l24 19 -25 0 c-14 0 -61 -16
-105 -36 -44 -19 -93 -40 -110 -46 -16 -7 -82 -39 -145 -71 -63 -33 -135 -69
-160 -81 -25 -11 -108 -53 -185 -93 -149 -78 -286 -147 -530 -266 -133 -65
-232 -117 -530 -278 -157 -84 -292 -128 -254 -83 6 8 9 20 6 28 -3 8 13 32 39
58 46 44 114 162 114 197 0 11 5 23 10 26 16 10 12 38 -5 31 -8 -3 -22 -9 -30
-12 -10 -4 -15 0 -15 15 0 13 8 23 24 27 15 3 26 15 29 30 5 28 -5 38 -43 43
-16 2 -11 29 8 43 9 7 25 23 36 35 17 21 17 23 1 39 -13 13 -16 31 -13 83 3
64 2 66 -22 67 -47 2 -47 2 -40 48 6 41 5 45 -17 51 -13 3 -21 10 -18 15 3 5
-11 12 -32 15 -62 11 -104 26 -110 41 -5 15 -155 92 -193 99 -14 3 -68 7 -120
10 -52 3 -108 8 -125 10 -81 13 -127 11 -208 -6 -49 -10 -100 -27 -115 -38
l-27 -19 -65 39 c-154 94 -299 114 -690 95 -173 -8 -213 -13 -350 -39 l-64
-13 -81 41 c-51 27 -96 42 -125 44 -25 1 -70 9 -100 17 -30 8 -57 13 -60 13
-3 -1 -27 -6 -54 -12z m1112 -440 c24 -22 22 -48 -4 -58 -10 -3 -21 -5 -24 -4
-11 7 -196 22 -282 24 -34 1 -48 5 -48 15 0 20 24 26 115 33 44 3 81 7 82 8 2
1 34 1 72 1 52 -1 74 -6 89 -19z m-348 -100 c25 0 97 1 160 3 127 3 174 -8
163 -37 -19 -49 -223 -290 -385 -453 -261 -264 -507 -500 -568 -545 -36 -27
-76 -61 -90 -76 -14 -15 -50 -43 -82 -63 -31 -19 -82 -58 -114 -86 -59 -52
-69 -57 -79 -40 -3 6 -1 10 5 10 10 0 28 36 35 73 2 10 25 57 50 104 25 47 45
95 45 108 0 12 11 37 25 56 31 42 66 118 90 189 22 69 47 118 74 149 12 14 24
36 28 50 3 14 29 76 58 136 29 61 60 134 70 162 9 30 28 62 42 73 14 11 23 26
20 34 -3 8 2 21 11 28 20 17 180 77 202 76 26 -2 149 24 148 31 -3 26 3 33 25
26 12 -5 42 -8 67 -8z m1610 -548 c0 -9 -26 -19 -48 -19 -16 1 -16 2 0 14 19
14 48 17 48 5z m-801 -500 c-10 -20 -34 -25 -44 -10 -8 14 23 41 40 35 11 -5
12 -11 4 -25z m1711 -358 c0 -5 -7 -12 -16 -15 -22 -9 -24 -8 -24 9 0 8 9 15
20 15 11 0 20 -4 20 -9z m-1891 -83 c-8 -14 -14 -18 -17 -10 -4 13 17 46 25
38 3 -2 -1 -15 -8 -28z m1836 -24 c20 -15 20 -15 -3 -34 -36 -30 -63 -10 -46
34 8 20 23 20 49 0z m-686 -17 c19 -22 20 -25 6 -37 -23 -19 -65 5 -65 37 0
31 29 30 59 0z m851 -341 c0 -3 -4 -8 -10 -11 -5 -3 -10 -1 -10 4 0 6 5 11 10
11 6 0 10 -2 10 -4z m-125 -136 c3 -5 1 -10 -4 -10 -6 0 -11 5 -11 10 0 6 2
10 4 10 3 0 8 -4 11 -10z"/>
<path d="M7631 5739 c-13 -5 -21 -12 -18 -15 3 -3 18 1 34 10 31 17 21 20 -16
5z"/>
<path d="M2393 5147 c-25 -11 -39 -37 -20 -37 18 1 61 36 51 42 -5 3 -19 1
-31 -5z"/>
<path d="M6886 3523 c-4 -4 -21 -7 -39 -8 -21 0 -33 -5 -35 -16 -4 -22 29 -34
43 -16 6 8 22 17 35 19 25 3 41 28 18 28 -8 0 -18 -3 -22 -7z"/>
<path d="M6833 3432 c-23 -11 -31 -21 -29 -36 4 -27 19 -30 45 -8 14 11 22 26
19 39 -3 19 -4 20 -35 5z"/>
<path d="M5571 3241 c-8 -5 -9 -11 -3 -15 5 -3 12 1 16 9 6 17 6 18 -13 6z"/>
<path d="M2673 3223 c-21 -8 -15 -22 7 -16 11 3 20 9 20 14 0 10 -8 10 -27 2z"/>
<path d="M6747 3133 c-10 -9 -9 -23 2 -23 5 0 11 7 15 15 5 15 -5 20 -17 8z"/>
<path d="M5553 3113 c-15 -5 -17 -23 -4 -23 5 0 11 7 15 15 3 8 4 15 3 14 -1
0 -8 -3 -14 -6z"/>
<path d="M6711 3086 c-10 -12 -8 -13 8 -9 12 3 18 9 15 14 -7 12 -10 11 -23
-5z"/>
<path d="M6662 3037 c-29 -31 -30 -57 -1 -31 25 23 43 54 31 54 -5 0 -18 -10
-30 -23z"/>
<path d="M2347 2967 c-13 -20 -14 -28 -3 -42 11 -15 13 -15 23 7 5 12 7 31 4
42 -7 17 -8 16 -24 -7z"/>
<path d="M6475 2790 c-10 -11 -13 -20 -8 -20 13 0 38 29 31 35 -3 3 -13 -4
-23 -15z"/>
<path d="M6296 2674 c-9 -22 -8 -24 9 -18 8 4 15 12 15 20 0 19 -16 18 -24 -2z"/>
</g>
</svg>
