<?xml version="1.0" standalone="no"?>
<!DOCTYPE svg PUBLIC "-//W3C//DTD SVG 20010904//EN"
 "http://www.w3.org/TR/2001/REC-SVG-20010904/DTD/svg10.dtd">
<svg version="1.0" xmlns="http://www.w3.org/2000/svg"
 width="300.000000pt" height="300.000000pt" viewBox="0 0 300.000000 300.000000"
 preserveAspectRatio="xMidYMid meet">
<metadata>
Created by potrace 1.14, written by Peter Selinger 2001-2017
</metadata>
<g transform="translate(0.000000,300.000000) scale(0.100000,-0.100000)"
fill="#000000" stroke="none">
<path d="M2345 2018 c-56 -12 -109 -44 -140 -83 -47 -62 -57 -113 -57 -290 0
-141 2 -167 22 -218 39 -103 112 -151 230 -151 85 0 131 17 179 66 62 64 79
140 75 334 -4 149 -6 161 -33 218 -48 97 -160 148 -276 124z m129 -168 c25
-25 34 -88 31 -234 -3 -135 -13 -172 -50 -186 -71 -27 -136 1 -152 67 -14 58
-8 294 8 329 25 52 121 66 163 24z"/>
<path d="M680 2010 l-25 -6 -5 -264 c-5 -283 -9 -304 -55 -316 -44 -11 -75 4
-91 43 -9 19 -13 41 -11 48 3 6 2 17 -2 24 -9 14 -100 21 -130 9 -20 -7 -21
-13 -16 -64 7 -73 28 -117 77 -158 113 -97 289 -61 355 72 16 33 18 68 20 325
1 214 -1 287 -10 288 -7 0 -28 1 -47 3 -19 1 -46 -1 -60 -4z"/>
<path d="M965 2010 l-30 -5 -1 -264 c-2 -297 4 -337 59 -391 125 -123 338 -92
405 60 13 28 16 86 18 306 1 149 -2 277 -6 284 -7 11 -51 15 -122 11 -17 -1
-18 -20 -18 -261 0 -168 -4 -268 -11 -283 -26 -58 -124 -62 -166 -8 -9 12 -12
89 -13 284 0 206 -3 267 -12 268 -47 4 -77 4 -103 -1z"/>
<path d="M1727 2005 c-72 -14 -123 -54 -159 -123 l-27 -53 2 -277 2 -277 70 0
70 0 5 272 c5 260 6 273 26 293 41 41 134 26 153 -23 5 -12 9 -136 9 -274 0
-139 3 -257 7 -263 9 -15 120 -13 132 3 15 18 9 545 -6 581 -45 109 -159 166
-284 141z"/>
<path d="M2137 1153 c-4 -3 -7 -44 -7 -90 l0 -83 50 0 c42 0 50 3 50 19 0 15
-6 18 -30 16 l-30 -3 0 74 c0 55 -3 74 -13 74 -8 0 -17 -3 -20 -7z"/>
<path d="M2262 1082 c-12 -44 -22 -84 -22 -91 0 -16 30 -13 36 4 4 8 17 15 30
15 15 0 24 -6 24 -15 0 -8 9 -15 20 -15 25 0 25 -3 -4 95 -18 62 -27 81 -43
83 -17 3 -23 -9 -41 -76z m45 -31 c-15 -6 -18 6 -10 35 l7 29 6 -30 c3 -16 2
-32 -3 -34z"/>
<path d="M2390 1068 l0 -88 43 0 c58 0 86 28 70 70 -6 17 -7 32 -1 38 13 13
-7 59 -30 66 -11 4 -33 5 -51 4 l-31 -2 0 -88z m80 36 c0 -8 -10 -14 -24 -14
-19 0 -23 4 -19 19 6 22 43 17 43 -5z m-2 -71 c-4 -19 -29 -25 -40 -9 -10 15
0 26 23 26 14 0 19 -6 17 -17z"/>
<path d="M2545 1144 c-27 -28 -15 -67 28 -87 40 -20 47 -34 21 -44 -10 -4 -20
0 -26 10 -8 16 -48 25 -48 11 0 -16 24 -46 43 -53 29 -11 75 6 82 30 10 31 -4
56 -40 73 -19 9 -37 20 -40 25 -9 16 24 21 39 6 17 -17 32 -19 41 -5 9 15 -32
50 -59 50 -14 0 -32 -7 -41 -16z"/>
</g>
</svg>
