<svg xmlns="http://www.w3.org/2000/svg" viewBox="0 0 340 55"><g fill-rule="nonzero" fill="none"><path d="M19.96.36C7.72.36.28 8.6.28 19.32c0 9.52 7.44 17.28 17.6 17.28.4 0 1.04-.08 1.52-.16l-9.04 11.92 8.48 5.76 15.76-21.2a23.98 23.98 0 0 0 4.96-14.16c0-10.48-7.36-18.4-19.6-18.4Zm0 9.44c5.36 0 8.4 3.92 8.4 9.04 0 4.8-3.2 8.72-8.4 8.72-5.12 0-8.48-3.92-8.48-8.72 0-5.12 3.2-9.04 8.48-9.04Z" fill="#ff4202"/><path fill="#000" d="M48.2 53h11.2V31h22.16v22h11.2V1.16h-11.2V21.4H59.4V1.16H48.2zM128.68 53.88c16 0 27.44-11.92 27.44-26.8 0-14.8-11.44-26.72-27.44-26.72s-27.44 11.92-27.44 26.72c0 14.88 11.44 26.8 27.44 26.8Zm.08-10.16c-9.12 0-15.84-7.36-15.84-16.64 0-9.2 6.8-16.56 15.84-16.56s15.68 7.36 15.68 16.56c0 9.28-6.64 16.64-15.68 16.64ZM164.52 53h11.2V20.2s2 3.36 4.64 7.12l11.36 16.16L203 27.4c2.72-3.92 4.72-7.2 4.72-7.2V53h11.2V1.16h-9.68l-8.16 11.6-9.36 13.36s-6.32-9.2-9.36-13.44L174.2 1.16h-9.68V53ZM229.16 53h11.2V1.16h-11.2zM250.68 53h41.68v-9.6h-30.48V30.84h27.84v-9.52h-27.84V10.76h29.36v-9.6h-40.56zM318.44 53.88c10.4 0 21.28-4.88 21.28-16.08 0-11.12-11.04-14.56-20.24-16.72-5.12-1.2-8.88-2.4-8.88-5.76 0-3.92 5.12-4.96 7.84-4.96 5.28 0 10.72 1.44 14.88 4.16l4.08-8.64C332.2 2.44 326.28.36 318.44.36c-9.92 0-19.28 4.96-19.28 14.96 0 10.8 10 14.08 19.68 16.32 4.56 1.12 9.2 2.16 9.2 6.16 0 4.08-5.28 6.08-9.6 6.08-7.92 0-12.88-2.64-17.04-5.68l-4.08 8.64c2.88 2.32 8.72 7.04 21.12 7.04Z"/></g></svg>